<svg width="28" height="28" viewBox="0 0 28 28" fill="none" xmlns="http://www.w3.org/2000/svg">
<path d="M8.61955 18H7.3383L10.2172 10H11.6117L14.4906 18H13.2094L10.9477 11.4531H10.8852L8.61955 18ZM8.83439 14.8672H12.9906V15.8828H8.83439V14.8672ZM15.7779 18V10H18.6295C19.2519 10 19.7675 10.1133 20.1764 10.3398C20.5852 10.5664 20.8912 10.8763 21.0943 11.2695C21.2974 11.6602 21.399 12.1003 21.399 12.5898C21.399 13.082 21.2961 13.5247 21.0904 13.918C20.8873 14.3086 20.58 14.6185 20.1685 14.8477C19.7597 15.0742 19.2454 15.1875 18.6256 15.1875H16.6646V14.1641H18.5162C18.9094 14.1641 19.2284 14.0964 19.4732 13.9609C19.718 13.8229 19.8977 13.6354 20.0123 13.3984C20.1269 13.1615 20.1842 12.8919 20.1842 12.5898C20.1842 12.2878 20.1269 12.0195 20.0123 11.7852C19.8977 11.5508 19.7167 11.3672 19.4693 11.2344C19.2245 11.1016 18.9016 11.0352 18.5006 11.0352H16.9849V18H15.7779Z" fill="#F4F5F6"/>
<rect x="0.5" y="0.5" width="27" height="27" rx="13.5" stroke="#A7ABB7"/>
</svg>
