<svg width="20" height="21" viewBox="0 0 20 21" fill="none" xmlns="http://www.w3.org/2000/svg">
<path d="M13.0986 2.82644C13.1227 2.74798 13.1312 2.66553 13.1235 2.5838C13.1157 2.50208 13.092 2.42267 13.0535 2.35013C13.0151 2.27758 12.9628 2.21332 12.8995 2.16099C12.8363 2.10867 12.7633 2.06932 12.6849 2.04519C12.6064 2.02106 12.524 2.01262 12.4422 2.02036C12.3605 2.02809 12.2811 2.05185 12.2086 2.09027C12.136 2.12869 12.0717 2.18102 12.0194 2.24428C11.9671 2.30754 11.9277 2.38048 11.9036 2.45894L6.90362 18.7089C6.85488 18.8674 6.8711 19.0387 6.94869 19.1853C7.02628 19.3318 7.1589 19.4415 7.31737 19.4902C7.47583 19.5389 7.64717 19.5227 7.79368 19.4451C7.9402 19.3675 8.04988 19.2349 8.09862 19.0764L13.0986 2.82644ZM6.06862 5.95019C6.12682 6.00825 6.173 6.07722 6.20451 6.15315C6.23602 6.22908 6.25223 6.31049 6.25223 6.39269C6.25223 6.4749 6.23602 6.5563 6.20451 6.63224C6.173 6.70817 6.12682 6.77714 6.06862 6.83519L2.13487 10.7677L6.06862 14.7002C6.18598 14.8176 6.25191 14.9767 6.25191 15.1427C6.25191 15.3087 6.18598 15.4678 6.06862 15.5852C5.95126 15.7026 5.79209 15.7685 5.62612 15.7685C5.46015 15.7685 5.30098 15.7026 5.18362 15.5852L0.808617 11.2102C0.750413 11.1521 0.704235 11.0832 0.672727 11.0072C0.641218 10.9313 0.625 10.8499 0.625 10.7677C0.625 10.6855 0.641218 10.6041 0.672727 10.5282C0.704235 10.4522 0.750413 10.3833 0.808617 10.3252L5.18362 5.95019C5.24167 5.89199 5.31064 5.84581 5.38658 5.8143C5.46251 5.7828 5.54391 5.76658 5.62612 5.76658C5.70833 5.76658 5.78973 5.7828 5.86566 5.8143C5.94159 5.84581 6.01056 5.89199 6.06862 5.95019ZM13.9336 5.95019C13.8754 6.00825 13.8292 6.07722 13.7977 6.15315C13.7662 6.22908 13.75 6.31049 13.75 6.39269C13.75 6.4749 13.7662 6.5563 13.7977 6.63224C13.8292 6.70817 13.8754 6.77714 13.9336 6.83519L17.8674 10.7677L13.9336 14.7002C13.8755 14.7583 13.8294 14.8273 13.798 14.9032C13.7665 14.9791 13.7503 15.0605 13.7503 15.1427C13.7503 15.2249 13.7665 15.3063 13.798 15.3822C13.8294 15.4581 13.8755 15.5271 13.9336 15.5852C13.9917 15.6433 14.0607 15.6894 14.1366 15.7208C14.2126 15.7523 14.2939 15.7685 14.3761 15.7685C14.4583 15.7685 14.5397 15.7523 14.6156 15.7208C14.6915 15.6894 14.7605 15.6433 14.8186 15.5852L19.1936 11.2102C19.2518 11.1521 19.298 11.0832 19.3295 11.0072C19.361 10.9313 19.3772 10.8499 19.3772 10.7677C19.3772 10.6855 19.361 10.6041 19.3295 10.5282C19.298 10.4522 19.2518 10.3833 19.1936 10.3252L14.8186 5.95019C14.7606 5.89199 14.6916 5.84581 14.6157 5.8143C14.5397 5.7828 14.4583 5.76658 14.3761 5.76658C14.2939 5.76658 14.2125 5.7828 14.1366 5.8143C14.0606 5.84581 13.9917 5.89199 13.9336 5.95019Z" fill="#A7ABB7"/>
</svg>
