<svg width="64" height="33" viewBox="0 0 64 33" fill="none" xmlns="http://www.w3.org/2000/svg">
<path d="M13.5555 12.9441C13.4157 14.4188 12.8694 15.5707 11.9167 16.3999C10.964 17.2228 9.69687 17.6342 8.11527 17.6342C7.01012 17.6342 6.03515 17.3748 5.19038 16.8557C4.35196 16.3303 3.7041 15.5866 3.24678 14.6245C2.78947 13.6624 2.55128 12.5453 2.53223 11.2729V9.98181C2.53223 8.67784 2.76406 7.52904 3.22772 6.53533C3.6914 5.54155 4.35514 4.77569 5.21896 4.23768C6.08914 3.69967 7.0927 3.43066 8.22959 3.43066C9.76036 3.43066 10.9926 3.84525 11.9262 4.67442C12.8599 5.50356 13.403 6.6746 13.5555 8.18733H11.1545C11.0402 7.19362 10.748 6.47838 10.278 6.04161C9.81439 5.59857 9.13156 5.37698 8.22959 5.37698C7.18162 5.37698 6.37496 5.75994 5.80967 6.52578C5.25072 7.28543 4.9649 8.40251 4.95219 9.87732V11.1021C4.95219 12.5959 5.21896 13.7352 5.7525 14.5201C6.29239 15.3049 7.07999 15.6974 8.11527 15.6974C9.06167 15.6974 9.77308 15.4853 10.2494 15.0613C10.7259 14.6372 11.0275 13.9314 11.1545 12.9441H13.5555ZM21.2056 12.1181H18.5188V17.4443H16.1084V3.62055H20.9865C22.587 3.62055 23.8225 3.97817 24.6926 4.69341C25.5628 5.40862 25.9979 6.44353 25.9979 7.7981C25.9979 8.72218 25.7724 9.49757 25.3214 10.1242C24.8769 10.7444 24.2545 11.2223 23.4541 11.5578L26.5696 17.3209V17.4443H23.9876L21.2056 12.1181ZM18.5188 10.1906H20.9961C21.809 10.1906 22.4441 9.98808 22.9015 9.58303C23.3588 9.17156 23.5875 8.61141 23.5875 7.90245C23.5875 7.16198 23.3747 6.58914 22.9492 6.18409C22.53 5.77889 21.9011 5.57006 21.0627 5.55737H18.5188V10.1906ZM31.2185 17.4443H28.8177V3.62055H31.2185V17.4443ZM41.8222 13.8839C41.8222 13.2763 41.6063 12.8079 41.1744 12.4788C40.7488 12.1496 39.9772 11.8173 38.8593 11.4819C37.7414 11.1464 36.8521 10.773 36.1916 10.3616C34.9276 9.57034 34.2956 8.53864 34.2956 7.26639C34.2956 6.15237 34.7497 5.23459 35.658 4.51302C36.5726 3.79145 37.7572 3.43066 39.2117 3.43066C40.1772 3.43066 41.0378 3.6079 41.7937 3.96235C42.5495 4.3168 43.1434 4.82317 43.5753 5.48147C44.0072 6.13341 44.2231 6.85813 44.2231 7.6557H41.8222C41.8222 6.93404 41.5936 6.37076 41.1362 5.96563C40.6852 5.55424 40.0374 5.34854 39.1926 5.34854C38.4051 5.34854 37.7921 5.51625 37.3539 5.85174C36.922 6.18715 36.706 6.65557 36.706 7.25692C36.706 7.76325 36.941 8.18733 37.411 8.52916C37.8811 8.86458 38.6559 9.19373 39.7357 9.51653C40.8156 9.83299 41.6825 10.197 42.3367 10.6084C42.9909 11.0135 43.4705 11.4819 43.7753 12.0136C44.0802 12.5389 44.2326 13.1561 44.2326 13.8649C44.2326 15.017 43.7881 15.9347 42.8988 16.6183C42.016 17.2956 40.8156 17.6342 39.2974 17.6342C38.294 17.6342 37.3697 17.4507 36.5249 17.0835C35.6865 16.7101 35.0324 16.1974 34.5623 15.5455C34.0986 14.8935 33.8668 14.134 33.8668 13.2668H36.2773C36.2773 14.0517 36.5377 14.6593 37.0585 15.0898C37.5794 15.5201 38.3257 15.7353 39.2974 15.7353C40.1358 15.7353 40.7647 15.5677 41.1839 15.2322C41.6094 14.8903 41.8222 14.441 41.8222 13.8839ZM49.2819 17.4443H46.8809V3.62055H49.2819V17.4443ZM55.0455 15.5265H61.3432V17.4443H52.6351V3.62055H55.0455V15.5265Z" fill="white"/>
<path d="M61.6591 22.1108H1.56152V23.2775H61.6591V22.1108Z" fill="white"/>
<path d="M4.12936 28.9874H2.62479L2.31001 29.8886H1.6084L3.07563 26.0179H3.6812L5.15109 29.8886H4.44682L4.12936 28.9874ZM2.8142 28.4451H3.93996L3.37708 26.8394L2.8142 28.4451ZM6.00475 27.0122L6.02342 27.3445C6.23683 27.0875 6.51694 26.9591 6.86374 26.9591C7.46483 26.9591 7.77072 27.302 7.78141 27.9879V29.8886H7.13318V28.0251C7.13318 27.8425 7.09316 27.7078 7.01313 27.621C6.93488 27.5323 6.80594 27.4881 6.62631 27.4881C6.36488 27.4881 6.17014 27.6059 6.04209 27.8416V29.8886H5.39385V27.0122H6.00475ZM41.4983 28.6286C41.4592 29.0415 41.3062 29.364 41.0394 29.5962C40.7726 29.8266 40.4178 29.9418 39.9751 29.9418C39.6656 29.9418 39.3926 29.8691 39.156 29.7238C38.9213 29.5768 38.7399 29.3684 38.6119 29.0991C38.4838 28.8297 38.4171 28.5169 38.4117 28.1607V27.7991C38.4117 27.434 38.4767 27.1123 38.6065 26.8342C38.7363 26.5558 38.9222 26.3414 39.164 26.1907C39.4077 26.0401 39.6887 25.9648 40.0071 25.9648C40.4356 25.9648 40.7807 26.0809 41.0421 26.313C41.3035 26.5452 41.4556 26.8731 41.4983 27.2967H40.8261C40.7941 27.0184 40.7122 26.8181 40.5805 26.6958C40.4508 26.5718 40.2595 26.5098 40.0071 26.5098C39.7136 26.5098 39.4877 26.617 39.3294 26.8314C39.173 27.0442 39.0929 27.357 39.0893 27.7699V28.1128C39.0893 28.5311 39.164 28.8501 39.3134 29.0699C39.4646 29.2896 39.6851 29.3995 39.9751 29.3995C40.24 29.3995 40.4392 29.3402 40.5726 29.2214C40.706 29.1026 40.7904 28.9051 40.8261 28.6286H41.4983ZM41.9197 28.4238C41.9197 28.1421 41.9757 27.8886 42.0878 27.6636C42.1998 27.4367 42.3573 27.263 42.56 27.1424C42.7627 27.0202 42.9957 26.9591 43.2589 26.9591C43.6484 26.9591 43.9641 27.084 44.2059 27.3339C44.4496 27.5837 44.5812 27.9151 44.6008 28.3281L44.6034 28.4797C44.6034 28.7632 44.5483 29.0166 44.4381 29.24C44.3296 29.4632 44.173 29.6361 43.9685 29.7583C43.7658 29.8806 43.531 29.9418 43.2642 29.9418C42.857 29.9418 42.5307 29.8071 42.2852 29.5377C42.0416 29.2666 41.9197 28.9059 41.9197 28.4558V28.4238ZM42.568 28.4797C42.568 28.7756 42.6293 29.0078 42.7521 29.1762C42.8748 29.3428 43.0455 29.4261 43.2642 29.4261C43.483 29.4261 43.6529 29.341 43.7738 29.1708C43.8965 29.0007 43.9579 28.7516 43.9579 28.4238C43.9579 28.1332 43.8947 27.9028 43.7685 27.7326C43.644 27.5625 43.4741 27.4774 43.2589 27.4774C43.0473 27.4774 42.8792 27.5616 42.7548 27.73C42.6303 27.8966 42.568 28.1465 42.568 28.4797ZM45.7612 27.0122L45.7799 27.3126C45.9826 27.0769 46.2601 26.9591 46.6122 26.9591C46.9981 26.9591 47.2622 27.1061 47.4045 27.4004C47.6144 27.1061 47.9096 26.9591 48.2902 26.9591C48.6085 26.9591 48.845 27.0468 48.9997 27.2222C49.1563 27.3977 49.2363 27.6564 49.24 27.9985V29.8886H48.5917V28.0172C48.5917 27.8345 48.5516 27.7008 48.4716 27.6157C48.3915 27.5307 48.2591 27.4881 48.0741 27.4881C47.9265 27.4881 47.8056 27.5279 47.7113 27.6077C47.6189 27.6857 47.5539 27.7885 47.5165 27.9161L47.5192 29.8886H46.871V27.9958C46.8621 27.6573 46.6887 27.4881 46.3508 27.4881C46.0912 27.4881 45.9071 27.5936 45.7986 27.8044V29.8886H45.1504V27.0122H45.7612ZM52.4331 28.4797C52.4331 28.9245 52.3317 29.2799 52.129 29.5457C51.9262 29.8097 51.6541 29.9418 51.3127 29.9418C50.9961 29.9418 50.7426 29.8382 50.5524 29.6308V30.9946H49.9041V27.0122H50.5017L50.5283 27.3046C50.7186 27.0743 50.9774 26.9591 51.3047 26.9591C51.6568 26.9591 51.9325 27.0902 52.1316 27.3525C52.3326 27.613 52.4331 27.9754 52.4331 28.4398V28.4797ZM51.7875 28.4238C51.7875 28.1367 51.7298 27.909 51.6141 27.7407C51.5003 27.5722 51.3367 27.4881 51.1232 27.4881C50.8583 27.4881 50.668 27.5971 50.5524 27.8151V29.0911C50.6698 29.3144 50.8618 29.4261 51.1286 29.4261C51.3349 29.4261 51.4958 29.3437 51.6114 29.1788C51.7288 29.0123 51.7875 28.7605 51.7875 28.4238ZM54.7086 29.8886C54.6802 29.8337 54.6552 29.7442 54.6339 29.6202C54.4277 29.8346 54.1751 29.9418 53.8763 29.9418C53.5864 29.9418 53.3499 29.8594 53.1667 29.6946C52.9835 29.5297 52.892 29.3259 52.892 29.0831C52.892 28.7765 53.0058 28.5416 53.2334 28.3787C53.4628 28.2138 53.7901 28.1314 54.2152 28.1314H54.6125V27.9426C54.6125 27.7937 54.5708 27.6751 54.4872 27.5864C54.4036 27.496 54.2765 27.4508 54.1057 27.4508C53.9581 27.4508 53.8372 27.4881 53.7429 27.5625C53.6487 27.6351 53.6015 27.7282 53.6015 27.8416H52.9533C52.9533 27.6839 53.0058 27.5368 53.1106 27.4004C53.2157 27.2621 53.3579 27.154 53.5376 27.076C53.7189 26.998 53.9208 26.9591 54.1431 26.9591C54.481 26.9591 54.7504 27.0442 54.9514 27.2143C55.1523 27.3826 55.2555 27.6201 55.2608 27.9267V29.224C55.2608 29.4828 55.2973 29.6893 55.3702 29.8434V29.8886H54.7086ZM53.9964 29.4234C54.1245 29.4234 54.2445 29.3924 54.3565 29.3303C54.4704 29.2683 54.5557 29.1851 54.6125 29.0804V28.5381H54.2632C54.0231 28.5381 53.8425 28.5798 53.7216 28.6631C53.6007 28.7464 53.5402 28.8642 53.5402 29.0166C53.5402 29.1407 53.581 29.24 53.6629 29.3144C53.7464 29.387 53.8577 29.4234 53.9964 29.4234ZM56.5413 27.0122L56.56 27.3445C56.7734 27.0875 57.0536 26.9591 57.4003 26.9591C58.0014 26.9591 58.3073 27.302 58.318 27.9879V29.8886H57.6697V28.0251C57.6697 27.8425 57.6298 27.7078 57.5497 27.621C57.4715 27.5323 57.3426 27.4881 57.1629 27.4881C56.9015 27.4881 56.7067 27.6059 56.5787 27.8416V29.8886H55.9304V27.0122H56.5413ZM59.9906 28.9635L60.5775 27.0122H61.2685L60.1213 30.3246C59.9453 30.8084 59.6466 31.0504 59.225 31.0504C59.1307 31.0504 59.0267 31.0344 58.9129 31.0025V30.5027L59.0356 30.5107C59.1992 30.5107 59.3219 30.4806 59.4037 30.4203C59.4873 30.3618 59.5531 30.2626 59.6011 30.1226L59.6946 29.8753L58.6808 27.0122H59.3798L59.9906 28.9635Z" fill="white"/>
<path d="M11.8984 28.8917C11.8984 28.7215 11.838 28.5903 11.717 28.4981C11.5978 28.406 11.3818 28.313 11.0687 28.219C10.7558 28.1251 10.5068 28.0205 10.3218 27.9053C9.96792 27.6838 9.7909 27.3949 9.7909 27.0386C9.7909 26.7268 9.91817 26.4698 10.1724 26.2678C10.4285 26.0657 10.7602 25.9647 11.1675 25.9647C11.4378 25.9647 11.6788 26.0143 11.8905 26.1135C12.102 26.2129 12.2684 26.3546 12.3892 26.5389C12.5102 26.7215 12.5707 26.9244 12.5707 27.1477H11.8984C11.8984 26.9457 11.8344 26.7879 11.7063 26.6745C11.5801 26.5594 11.3987 26.5017 11.1622 26.5017C10.9416 26.5017 10.77 26.5486 10.6473 26.6426C10.5264 26.7365 10.4659 26.8676 10.4659 27.036C10.4659 27.1778 10.5317 27.2965 10.6633 27.3922C10.7948 27.4862 11.0118 27.5784 11.3142 27.6687C11.6166 27.7573 11.8593 27.8593 12.0425 27.9745C12.2257 28.0879 12.3599 28.219 12.4453 28.3679C12.5307 28.515 12.5734 28.6878 12.5734 28.8863C12.5734 29.2088 12.4489 29.4658 12.1999 29.6572C11.9526 29.8469 11.6166 29.9417 11.1915 29.9417C10.9105 29.9417 10.6517 29.8903 10.4152 29.7874C10.1804 29.683 9.9973 29.5394 9.86559 29.3568C9.73584 29.1743 9.6709 28.9617 9.6709 28.7189H10.3459C10.3459 28.9385 10.4188 29.1087 10.5646 29.2292C10.7104 29.3497 10.9193 29.41 11.1915 29.41C11.4262 29.41 11.6022 29.3631 11.7196 29.2691C11.8388 29.1734 11.8984 29.0476 11.8984 28.8917ZM13.0001 28.8438C13.0001 28.6647 13.0491 28.5008 13.1468 28.3519C13.2447 28.2013 13.4377 28.0232 13.7257 27.8176C13.5747 27.6279 13.4688 27.4667 13.4084 27.3337C13.3497 27.2008 13.3203 27.0723 13.3203 26.9483C13.3203 26.6452 13.4128 26.406 13.5977 26.2306C13.7828 26.0533 14.0317 25.9647 14.3446 25.9647C14.6275 25.9647 14.8586 26.048 15.0383 26.2146C15.2197 26.3794 15.3104 26.5841 15.3104 26.8286C15.3104 26.99 15.2694 27.1388 15.1877 27.2752C15.1059 27.41 14.9716 27.5447 14.7849 27.6794L14.5207 27.8708L15.2703 28.7533C15.3788 28.5407 15.4331 28.3041 15.4331 28.0436H15.996C15.996 28.5203 15.8839 28.9111 15.6598 29.216L16.2308 29.8885H15.4784L15.2597 29.6307C14.9822 29.838 14.6515 29.9417 14.2673 29.9417C13.8832 29.9417 13.5755 29.8407 13.3444 29.6386C13.1148 29.4348 13.0001 29.1698 13.0001 28.8438ZM14.286 29.426C14.5047 29.426 14.7092 29.3532 14.8996 29.208L14.0512 28.2111L13.9686 28.2695C13.7551 28.4308 13.6484 28.6152 13.6484 28.8225C13.6484 29.0015 13.7062 29.1468 13.8218 29.2584C13.9374 29.3701 14.0921 29.426 14.286 29.426ZM13.9285 26.9323C13.9285 27.0812 14.0201 27.2682 14.2033 27.4933L14.4993 27.2912L14.5821 27.2248C14.6924 27.1273 14.7475 27.0023 14.7475 26.85C14.7475 26.7489 14.7092 26.663 14.6327 26.5921C14.5564 26.5194 14.4594 26.4831 14.342 26.4831C14.2158 26.4831 14.1153 26.5257 14.0406 26.6107C13.9659 26.6957 13.9285 26.803 13.9285 26.9323ZM17.3351 28.4503V29.8885H16.6602V26.0178H18.1461C18.5801 26.0178 18.9242 26.1304 19.1785 26.3555C19.4346 26.5806 19.5627 26.8783 19.5627 27.2487C19.5627 27.628 19.4373 27.923 19.1865 28.1339C18.9375 28.3449 18.5881 28.4503 18.1382 28.4503H17.3351ZM17.3351 27.9106H18.1461C18.3862 27.9106 18.5694 27.8549 18.6956 27.7432C18.822 27.6298 18.8851 27.4667 18.8851 27.254C18.8851 27.0449 18.8211 26.8783 18.693 26.7543C18.5649 26.6284 18.3889 26.5637 18.1648 26.5602H17.3351V27.9106ZM24.4926 29.386C24.352 29.5686 24.1573 29.7068 23.9083 29.8008C23.6593 29.8947 23.3766 29.9417 23.06 29.9417C22.7345 29.9417 22.4465 29.8682 22.1957 29.7211C21.9449 29.5739 21.751 29.3639 21.6142 29.091C21.479 28.8163 21.4087 28.4964 21.4034 28.1313V27.8282C21.4034 27.2434 21.5439 26.7871 21.8249 26.4592C22.1059 26.1295 22.498 25.9647 23.0013 25.9647C23.4334 25.9647 23.7767 26.071 24.031 26.2837C24.2854 26.4964 24.4383 26.803 24.4899 27.2036H23.8283C23.7536 26.7374 23.4824 26.5043 23.0147 26.5043C22.7123 26.5043 22.482 26.6134 22.3238 26.8313C22.1672 27.0475 22.0863 27.3657 22.0809 27.7857V28.0835C22.0809 28.5017 22.169 28.8269 22.3451 29.0591C22.523 29.2895 22.7692 29.4046 23.0841 29.4046C23.429 29.4046 23.6745 29.3268 23.8203 29.1707V28.413H23.0199V27.9027H24.4926V29.386ZM25.8611 29.8885H25.2128V25.8052H25.8611V29.8885ZM26.4479 28.4238C26.4479 28.1419 26.504 27.8885 26.6161 27.6635C26.7281 27.4365 26.8854 27.2629 27.0881 27.1423C27.291 27.02 27.5239 26.9589 27.7872 26.9589C28.1766 26.9589 28.4923 27.0838 28.7342 27.3337C28.9778 27.5837 29.1094 27.9151 29.129 28.3281L29.1316 28.4795C29.1316 28.7631 29.0766 29.0166 28.9662 29.2398C28.8577 29.4632 28.7013 29.636 28.4967 29.7582C28.294 29.8805 28.0593 29.9417 27.7925 29.9417C27.3852 29.9417 27.0588 29.807 26.8134 29.5376C26.5697 29.2665 26.4479 28.9058 26.4479 28.4556V28.4238ZM27.0962 28.4795C27.0962 28.7755 27.1575 29.0077 27.2802 29.176C27.403 29.3427 27.5737 29.426 27.7925 29.426C28.0113 29.426 28.1811 29.3409 28.302 29.1707C28.4246 29.0006 28.4861 28.7516 28.4861 28.4238C28.4861 28.133 28.423 27.9027 28.2966 27.7325C28.1722 27.5624 28.0023 27.4773 27.7872 27.4773C27.5755 27.4773 27.4075 27.5615 27.283 27.7299C27.1584 27.8965 27.0962 28.1464 27.0962 28.4795ZM32.2129 28.4795C32.2129 28.9262 32.1124 29.2815 31.9113 29.5456C31.7121 29.8097 31.4374 29.9417 31.087 29.9417C30.7492 29.9417 30.486 29.8203 30.2974 29.5775L30.2654 29.8885H29.6785V25.8052H30.3268V27.2886C30.5135 27.0688 30.7652 26.9589 31.0817 26.9589C31.4339 26.9589 31.7104 27.0892 31.9113 27.3497C32.1124 27.6102 32.2129 27.9744 32.2129 28.4423V28.4795ZM31.5646 28.4238C31.5646 28.1118 31.5094 27.8779 31.3992 27.7219C31.2889 27.5659 31.1289 27.488 30.919 27.488C30.638 27.488 30.4406 27.6102 30.3268 27.8549V29.0405C30.4424 29.2904 30.6416 29.4154 30.9244 29.4154C31.127 29.4154 31.2836 29.34 31.3938 29.1894C31.5041 29.0387 31.561 28.8109 31.5646 28.5062V28.4238ZM34.483 29.8885C34.4545 29.8336 34.4297 29.7441 34.4083 29.62C34.202 29.8345 33.9495 29.9417 33.6507 29.9417C33.3608 29.9417 33.1243 29.8593 32.9412 29.6945C32.758 29.5296 32.6663 29.3258 32.6663 29.0831C32.6663 28.7764 32.7801 28.5416 33.0078 28.3785C33.2372 28.2138 33.5644 28.1313 33.9894 28.1313H34.387V27.9425C34.387 27.7937 34.3452 27.675 34.2617 27.5863C34.178 27.4959 34.0508 27.4508 33.8801 27.4508C33.7326 27.4508 33.6116 27.488 33.5173 27.5624C33.423 27.6351 33.3759 27.7281 33.3759 27.8416H32.7276C32.7276 27.6838 32.7801 27.5367 32.8851 27.4002C32.99 27.262 33.1323 27.1538 33.3119 27.0759C33.4933 26.9979 33.6951 26.9589 33.9174 26.9589C34.2554 26.9589 34.5248 27.044 34.7258 27.2141C34.9268 27.3825 35.0299 27.62 35.0353 27.9265V29.2239C35.0353 29.4827 35.0717 29.6892 35.1446 29.8433V29.8885H34.483ZM33.7708 29.4233C33.8988 29.4233 34.0188 29.3923 34.1309 29.3303C34.2447 29.2682 34.3301 29.1849 34.387 29.0803V28.5381H34.0375C33.7974 28.5381 33.6169 28.5797 33.496 28.663C33.375 28.7463 33.3146 28.8641 33.3146 29.0166C33.3146 29.1406 33.3555 29.2398 33.4373 29.3143C33.5209 29.3869 33.632 29.4233 33.7708 29.4233ZM36.4038 29.8885H35.7555V25.8052H36.4038V29.8885Z" fill="white"/>
</svg>
