<svg width="20" height="20" viewBox="0 0 20 20" fill="none" xmlns="http://www.w3.org/2000/svg">
<path d="M2.5 5H4.16667H17.5" stroke="#1C3FCA" stroke-width="1.5" stroke-linecap="round" stroke-linejoin="round"/>
<path d="M6.66797 5V3.33333C6.66797 2.89131 6.84356 2.46738 7.15612 2.15482C7.46868 1.84226 7.89261 1.66667 8.33464 1.66667H11.668C12.11 1.66667 12.5339 1.84226 12.8465 2.15482C13.159 2.46738 13.3346 2.89131 13.3346 3.33333V5M15.8346 5V16.6667C15.8346 17.1087 15.659 17.5326 15.3465 17.8452C15.0339 18.1577 14.61 18.3333 14.168 18.3333H5.83464C5.39261 18.3333 4.96868 18.1577 4.65612 17.8452C4.34356 17.5326 4.16797 17.1087 4.16797 16.6667V5H15.8346Z" stroke="#1C3FCA" stroke-width="1.5" stroke-linecap="round" stroke-linejoin="round"/>
</svg>
